<?xml version="1.0" encoding="utf-8"?>
<!-- Generator: Adobe Illustrator 20.1.0, SVG Export Plug-In . SVG Version: 6.00 Build 0)  -->
<svg version="1.1" id="Layer_1" xmlns="http://www.w3.org/2000/svg" xmlns:xlink="http://www.w3.org/1999/xlink" x="0px" y="0px"
	 viewBox="0 0 1474 1209.9" style="enable-background:new 0 0 1474 1209.9;" xml:space="preserve">
<style type="text/css">
	.st0{fill:#007BFF;}
	.st1{fill:none;stroke:#007BFF;stroke-width:4;stroke-miterlimit:10;}
</style>
<g>
	<path pointer-events="none" class="st0" d="M642.7,568l-13.7,27.6l13.4,27.5l-55.1-27.9L642.7,568z"/>
	<line class="st1" x1="629.2" y1="595.6" x2="876.8" y2="593.5"/>
</g>
<g>
	<path pointer-events="none" class="st0" d="M612.5,380.5l7.2,29.9l27.9,12.5l-60.2,13.9L612.5,380.5z"/>
	<line class="st1" x1="619.8" y1="410.4" x2="841.6" y2="222"/>
</g>
<g>
	<path pointer-events="none" class="st0" d="M587.4,745.6l60.2,13.9L619.7,772l-7.2,29.9L587.4,745.6z"/>
	<line class="st1" x1="841.6" y1="960.5" x2="619.8" y2="772.1"/>
</g>
<rect x="31" y="488" class="st1" width="548.7" height="209.3"/>
<rect x="886.7" y="34.8" class="st1" width="548.7" height="209.3"/>
<rect x="886.7" y="339.9" class="st1" width="548.7" height="209.3"/>
<rect x="886.7" y="645" class="st1" width="548.7" height="209.3"/>
<rect x="886.7" y="950.1" class="st1" width="548.7" height="209.3"/>
<g>
	<path class="st0" d="M264.2,600.4c-3.2,14.2-14.1,24.1-31.6,24.1c-23.8,0-36.9-17.7-36.9-41.3s13.3-41.3,37-41.3
		c16.2,0,27.4,8.6,30.6,22.3h-10.6c-3-8.5-8.9-13.2-20-13.2c-18.5,0-26.8,15.3-26.8,32.2c0,17,8.2,32.2,26.7,32.2
		c11.2,0,18.4-5.7,21-15H264.2z"/>
	<path class="st0" d="M279,552.1v-10.3H289v10.3H279z M288.7,623h-9.5v-56.3h9.5V623z"/>
	<path class="st0" d="M334.6,566.7v8.3h-14.2v30.9c0,5.7,2.5,8.6,10.1,8.6h4.1v8.5h-4.4c-12.2,0-19.3-3.8-19.3-15.8V575h-9.7v-8.3
		h9.7v-17h9.5v17H334.6z"/>
	<path class="st0" d="M355.8,645.4l11.6-27.6l-24-51.1h10.2l17.2,37.1h2.8l15.6-37.1h9.9l-33.7,78.6H355.8z"/>
</g>
<g>
	<path class="st0" d="M1043.3,127.4c12,2.7,20,8.8,20,22.5c0,12.5-9.9,23.7-30.2,23.7c-18.7,0-30.8-9.8-32.1-23.7h10.2
		c1.8,10.8,11.4,14.5,22.3,14.5c11.1,0,19.5-5.1,19.5-14.3c0-8.6-5.7-11.8-13.5-13.6c-4-0.9-11.8-2.3-15.8-3.2
		c-11.6-2.3-19.3-8.6-19.3-20.2c0-12.4,10.1-22.1,28-22.1c16.5,0,27.1,8.7,28.9,21.6h-10.2c-1.9-8-7.4-12.4-19-12.4
		c-9.6,0-17.7,4.4-17.7,12.7c0,7.7,6.8,10.2,13.5,11.6C1031.7,124.9,1039.2,126.5,1043.3,127.4z"/>
	<path class="st0" d="M1106.3,115.8v8.3h-14.2V155c0,5.7,2.5,8.6,10.1,8.6h4.1v8.5h-4.4c-12.2,0-19.3-3.8-19.3-15.8v-32.3h-9.7v-8.3
		h9.7v-17h9.5v17H1106.3z"/>
	<path class="st0" d="M1154.1,124.7h-4.7c-11.2,0-18,6.8-18,19.2v28.2h-9.5v-56.3h9.2v6.7h2.5c2.8-3.5,8.2-6.7,16.3-6.7h4.2V124.7z"
		/>
	<path class="st0" d="M1215.3,143.8h-42.9c0.3,13.4,6.4,21.4,18,21.4c7.9,0,12.6-3.4,14.3-8.7h9.6c-1.8,9.6-9.9,17-23.9,17
		c-17.5,0-27.4-12.8-27.4-30.2c0-17.3,10.1-29,27.1-29c16.8,0,24.8,12.4,25.1,26.3V143.8z M1173,135.9h32.5
		c-0.6-7.1-6-13.3-15.5-13.3C1179.8,122.6,1174.2,128.7,1173,135.9z"/>
	<path class="st0" d="M1278.9,143.8H1236c0.3,13.4,6.4,21.4,18,21.4c7.9,0,12.6-3.4,14.3-8.7h9.6c-1.8,9.6-9.9,17-23.9,17
		c-17.5,0-27.4-12.8-27.4-30.2c0-17.3,10.1-29,27.1-29c16.8,0,24.8,12.4,25.1,26.3V143.8z M1236.6,135.9h32.5
		c-0.6-7.1-6-13.3-15.5-13.3C1243.4,122.6,1237.8,128.7,1236.6,135.9z"/>
	<path class="st0" d="M1320.9,115.8v8.3h-14.2V155c0,5.7,2.5,8.6,10.1,8.6h4.1v8.5h-4.4c-12.2,0-19.3-3.8-19.3-15.8v-32.3h-9.7v-8.3
		h9.7v-17h9.5v17H1320.9z"/>
</g>
<g>
	<path class="st0" d="M1043.3,431.4c12,2.7,20,8.8,20,22.5c0,12.5-9.9,23.7-30.2,23.7c-18.7,0-30.8-9.8-32.1-23.7h10.2
		c1.8,10.8,11.4,14.5,22.3,14.5c11.1,0,19.5-5.1,19.5-14.3c0-8.6-5.7-11.8-13.5-13.6c-4-0.9-11.8-2.3-15.8-3.2
		c-11.6-2.3-19.3-8.6-19.3-20.2c0-12.4,10.1-22.1,28-22.1c16.5,0,27.1,8.7,28.9,21.6h-10.2c-1.9-8-7.4-12.4-19-12.4
		c-9.6,0-17.6,4.4-17.6,12.7c0,7.7,6.8,10.2,13.5,11.6C1031.7,428.9,1039.2,430.5,1043.3,431.4z"/>
	<path class="st0" d="M1106.3,419.8v8.3h-14.2V459c0,5.7,2.5,8.6,10.1,8.6h4.1v8.5h-4.4c-12.2,0-19.3-3.8-19.3-15.8v-32.3h-9.7v-8.3
		h9.7v-17h9.5v17H1106.3z"/>
	<path class="st0" d="M1154.1,428.7h-4.7c-11.2,0-18,6.8-18,19.2v28.2h-9.5v-56.3h9.2v6.7h2.5c2.8-3.5,8.2-6.7,16.3-6.7h4.2V428.7z"
		/>
	<path class="st0" d="M1215.3,447.8h-42.9c0.3,13.4,6.4,21.4,18,21.4c7.9,0,12.6-3.4,14.3-8.7h9.6c-1.8,9.6-9.9,17-23.9,17
		c-17.5,0-27.4-12.8-27.4-30.2c0-17.3,10.1-29,27.1-29c16.8,0,24.8,12.4,25.1,26.3V447.8z M1173,439.9h32.5
		c-0.6-7.1-6-13.3-15.5-13.3C1179.8,426.6,1174.2,432.7,1173,439.9z"/>
	<path class="st0" d="M1278.9,447.8H1236c0.3,13.4,6.4,21.4,18,21.4c7.9,0,12.6-3.4,14.3-8.7h9.6c-1.8,9.6-9.9,17-23.9,17
		c-17.5,0-27.4-12.8-27.4-30.2c0-17.3,10.1-29,27.1-29c16.8,0,24.8,12.4,25.1,26.3V447.8z M1236.6,439.9h32.5
		c-0.6-7.1-6-13.3-15.5-13.3C1243.4,426.6,1237.8,432.7,1236.6,439.9z"/>
	<path class="st0" d="M1320.9,419.8v8.3h-14.2V459c0,5.7,2.5,8.6,10.1,8.6h4.1v8.5h-4.4c-12.2,0-19.3-3.8-19.3-15.8v-32.3h-9.7v-8.3
		h9.7v-17h9.5v17H1320.9z"/>
</g>
<g>
	<path class="st0" d="M1043.3,739.4c12,2.7,20,8.8,20,22.5c0,12.5-9.9,23.7-30.2,23.7c-18.7,0-30.8-9.8-32.1-23.7h10.2
		c1.8,10.8,11.4,14.5,22.3,14.5c11.1,0,19.5-5.1,19.5-14.3c0-8.6-5.7-11.8-13.5-13.6c-4-0.9-11.8-2.3-15.8-3.2
		c-11.6-2.3-19.3-8.6-19.3-20.2c0-12.4,10.1-22.1,28-22.1c16.5,0,27.1,8.7,28.9,21.6h-10.2c-1.9-8-7.4-12.4-19-12.4
		c-9.6,0-17.7,4.4-17.7,12.7c0,7.7,6.8,10.2,13.5,11.6C1031.7,736.9,1039.2,738.5,1043.3,739.4z"/>
	<path class="st0" d="M1106.3,727.8v8.3h-14.2V767c0,5.7,2.5,8.6,10.1,8.6h4.1v8.5h-4.4c-12.2,0-19.3-3.8-19.3-15.8v-32.3h-9.7v-8.3
		h9.7v-17h9.5v17H1106.3z"/>
	<path class="st0" d="M1154.1,736.7h-4.7c-11.2,0-18,6.8-18,19.2v28.2h-9.5v-56.3h9.2v6.7h2.5c2.8-3.5,8.2-6.7,16.3-6.7h4.2V736.7z"
		/>
	<path class="st0" d="M1215.3,755.8h-42.9c0.3,13.4,6.4,21.4,18,21.4c7.9,0,12.6-3.4,14.3-8.7h9.6c-1.8,9.6-9.9,17-23.9,17
		c-17.5,0-27.4-12.8-27.4-30.2c0-17.3,10.1-29,27.1-29c16.8,0,24.8,12.4,25.1,26.3V755.8z M1173,747.9h32.5
		c-0.6-7.1-6-13.3-15.5-13.3C1179.8,734.6,1174.2,740.7,1173,747.9z"/>
	<path class="st0" d="M1278.9,755.8H1236c0.3,13.4,6.4,21.4,18,21.4c7.9,0,12.6-3.4,14.3-8.7h9.6c-1.8,9.6-9.9,17-23.9,17
		c-17.5,0-27.4-12.8-27.4-30.2c0-17.3,10.1-29,27.1-29c16.8,0,24.8,12.4,25.1,26.3V755.8z M1236.6,747.9h32.5
		c-0.6-7.1-6-13.3-15.5-13.3C1243.4,734.6,1237.8,740.7,1236.6,747.9z"/>
	<path class="st0" d="M1320.9,727.8v8.3h-14.2V767c0,5.7,2.5,8.6,10.1,8.6h4.1v8.5h-4.4c-12.2,0-19.3-3.8-19.3-15.8v-32.3h-9.7v-8.3
		h9.7v-17h9.5v17H1320.9z"/>
</g>
<g>
	<path class="st0" d="M1043.3,1041.4c12,2.7,20,8.8,20,22.5c0,12.5-9.9,23.7-30.2,23.7c-18.7,0-30.8-9.8-32.1-23.7h10.2
		c1.8,10.8,11.4,14.5,22.3,14.5c11.1,0,19.5-5.1,19.5-14.3c0-8.6-5.7-11.8-13.5-13.6c-4-0.9-11.8-2.3-15.8-3.2
		c-11.6-2.3-19.3-8.6-19.3-20.2c0-12.4,10.1-22.1,28-22.1c16.5,0,27.1,8.7,28.9,21.6h-10.2c-1.9-8-7.4-12.4-19-12.4
		c-9.6,0-17.6,4.4-17.6,12.7c0,7.7,6.8,10.2,13.5,11.6C1031.7,1038.9,1039.2,1040.5,1043.3,1041.4z"/>
	<path class="st0" d="M1106.3,1029.8v8.3h-14.2v30.9c0,5.7,2.5,8.6,10.1,8.6h4.1v8.5h-4.4c-12.2,0-19.3-3.8-19.3-15.8v-32.3h-9.7
		v-8.3h9.7v-17h9.5v17H1106.3z"/>
	<path class="st0" d="M1154.1,1038.7h-4.7c-11.2,0-18,6.8-18,19.2v28.2h-9.5v-56.3h9.2v6.7h2.5c2.8-3.5,8.2-6.7,16.3-6.7h4.2V1038.7
		z"/>
	<path class="st0" d="M1215.3,1057.8h-42.9c0.3,13.4,6.4,21.4,18,21.4c7.9,0,12.6-3.4,14.3-8.7h9.6c-1.8,9.6-9.9,17-23.9,17
		c-17.5,0-27.4-12.8-27.4-30.2c0-17.3,10.1-29,27.1-29c16.8,0,24.8,12.4,25.1,26.3V1057.8z M1173,1049.9h32.5
		c-0.6-7.1-6-13.3-15.5-13.3C1179.8,1036.6,1174.2,1042.7,1173,1049.9z"/>
	<path class="st0" d="M1278.9,1057.8H1236c0.3,13.4,6.4,21.4,18,21.4c7.9,0,12.6-3.4,14.3-8.7h9.6c-1.8,9.6-9.9,17-23.9,17
		c-17.5,0-27.4-12.8-27.4-30.2c0-17.3,10.1-29,27.1-29c16.8,0,24.8,12.4,25.1,26.3V1057.8z M1236.6,1049.9h32.5
		c-0.6-7.1-6-13.3-15.5-13.3C1243.4,1036.6,1237.8,1042.7,1236.6,1049.9z"/>
	<path class="st0" d="M1320.9,1029.8v8.3h-14.2v30.9c0,5.7,2.5,8.6,10.1,8.6h4.1v8.5h-4.4c-12.2,0-19.3-3.8-19.3-15.8v-32.3h-9.7
		v-8.3h9.7v-17h9.5v17H1320.9z"/>
</g>
</svg>
