<?xml version="1.0" encoding="utf-8"?>
<!-- Generator: Adobe Illustrator 20.1.0, SVG Export Plug-In . SVG Version: 6.00 Build 0)  -->
<svg version="1.1" id="Layer_1" xmlns="http://www.w3.org/2000/svg" xmlns:xlink="http://www.w3.org/1999/xlink" x="0px" y="0px"
	 viewBox="0 0 1474 748.9" style="enable-background:new 0 0 1474 748.9;" xml:space="preserve">
<style type="text/css">
	.st0{fill:#007BFF;}
	.st1{fill:none;stroke:#007BFF;stroke-width:4;stroke-miterlimit:10;}
	.st2{fill:#082E51;}
</style>
<g>
	<path class="st0" d="M635.9,314.6v-11.5c0-3.5-1.6-5.3-4.9-5.3c-3.4,0-5.7,3-5.7,6.4v10.4h-3.2v-19.1h3.1v2.1h0.8
		c1.1-1.5,3.2-2.5,5.8-2.5c4.7,0,7.3,2.9,7.3,7.5v12.2H635.9z"/>
	<path class="st0" d="M657.3,312.6h-0.8c-1.2,1.5-3.2,2.5-6,2.5c-4.4,0-6.9-3-6.9-6.2c0-3.1,2-6.3,7.3-6.3h6.2v-0.8
		c0-2.3-1.3-4-4.7-4c-2.8,0-4.3,1.1-4.4,2.8h-3.2c0.3-3.5,3.3-5.6,7.6-5.6c4.8,0,7.9,2.3,7.9,6.6v13h-3V312.6z M657.2,306.9v-1.7
		h-5.7c-3.2,0-4.6,1.4-4.6,3.6c0,2.2,1.6,3.5,4.4,3.5C654.5,312.3,657.2,309.9,657.2,306.9z"/>
	<path class="st0" d="M692.7,302.2v12.4h-3.2v-12c0-3.2-1.2-4.7-3.7-4.7c-3,0-4.7,2.3-4.7,5.5v11.2h-3.2v-12c0-3.2-1.3-4.8-3.6-4.8
		c-3.2,0-4.7,2.7-4.7,6.2v10.6h-3.2v-19.1h3.1v1.9h0.8c0.9-1.5,2.4-2.4,4.9-2.4c2.3,0,4,0.8,5.1,2.5h0.8c1.2-1.7,3-2.5,5.4-2.5
		C690.8,295,692.7,297.8,692.7,302.2z"/>
	<path class="st0" d="M715.2,305h-14.6c0.1,4.6,2.2,7.3,6.1,7.3c2.7,0,4.3-1.1,4.9-3h3.3c-0.6,3.3-3.4,5.8-8.1,5.8
		c-6,0-9.3-4.4-9.3-10.3c0-5.9,3.4-9.9,9.2-9.9c5.7,0,8.4,4.2,8.5,8.9V305z M700.8,302.3h11.1c-0.2-2.4-2.1-4.5-5.3-4.5
		C703.1,297.8,701.2,299.9,700.8,302.3z"/>
</g>
<g>
	<path class="st0" d="M807.9,288.3v27.6h-3.2v-27.6H807.9z"/>
	<path class="st0" d="M831.8,306.3c0,5.7-3.5,10.1-9.4,10.1c-6,0-9.4-4.4-9.4-10.1s3.4-10.1,9.4-10.1
		C828.3,296.3,831.8,300.7,831.8,306.3z M828.5,306.3c0-3.8-2-7.3-6.2-7.3c-4.3,0-6.2,3.5-6.2,7.3c0,3.8,1.9,7.3,6.2,7.3
		C826.6,313.6,828.5,310.1,828.5,306.3z"/>
	<path class="st0" d="M850.6,315.9v-11.5c0-3.5-1.6-5.3-4.9-5.3c-3.4,0-5.7,3-5.7,6.4v10.4h-3.2v-19.1h3.1v2.1h0.8
		c1.1-1.5,3.2-2.5,5.8-2.5c4.7,0,7.3,2.9,7.3,7.5v12.2H850.6z"/>
	<path class="st0" d="M876.9,296.8V315c0,5.4-3.3,8.8-8.9,8.8c-4.9,0-8.1-2.1-8.7-5.9h3.2c0.6,2.3,2.5,3.1,5.4,3.1
		c4,0,5.7-2.4,5.7-6.2v-1.5h-0.8c-1,1.3-2.8,2.5-5.7,2.5c-5.3,0-8.5-4.2-8.5-9.8c0-5.6,3.2-9.8,8.5-9.8c3,0,4.8,1.2,5.9,2.5h0.8
		v-2.1H876.9z M873.8,306.1c0-3.7-1.9-7-6-7c-3.8,0-5.9,2.8-5.9,7c0,4.1,2.1,7,5.9,7C871.8,313,873.8,309.7,873.8,306.1z"/>
	<path class="st0" d="M892.4,296.8v2.8h-4.8v10.5c0,1.9,0.8,2.9,3.4,2.9h1.4v2.9h-1.5c-4.1,0-6.6-1.3-6.6-5.4v-11h-3.3v-2.8h3.3V291
		h3.2v5.8H892.4z"/>
	<path class="st0" d="M897.7,291.8v-3.5h3.4v3.5H897.7z M901,315.9h-3.2v-19.1h3.2V315.9z"/>
	<path class="st0" d="M916.7,296.8v2.8h-4.8v10.5c0,1.9,0.8,2.9,3.4,2.9h1.4v2.9h-1.5c-4.1,0-6.6-1.3-6.6-5.4v-11h-3.3v-2.8h3.3V291
		h3.2v5.8H916.7z"/>
	<path class="st0" d="M924.9,296.8v11.5c0,3.5,1.6,5.3,4.9,5.3c3.4,0,5.7-2.9,5.7-6.4v-10.4h3.2v19.1h-3.1v-2.1h-0.8
		c-1.1,1.5-3.2,2.5-5.8,2.5c-4.7,0-7.3-2.9-7.3-7.5v-12.2H924.9z"/>
	<path class="st0" d="M962.1,288.3v27.6h-3.1v-2.1h-0.8c-1.1,1.3-2.9,2.5-6,2.5c-5.3,0-8.4-4.4-8.4-10.1c0-5.8,3.1-10.1,8.4-10.1
		c3,0,4.8,1.2,5.9,2.5h0.8v-10.5H962.1z M958.9,306.3c0-3.8-1.7-7.3-6-7.3c-3.8,0-5.9,3-5.9,7.3c0,4.3,2.1,7.3,5.9,7.3
		C957.1,313.6,958.9,310.1,958.9,306.3z"/>
	<path class="st0" d="M984.9,306.3h-14.6c0.1,4.6,2.2,7.3,6.1,7.3c2.7,0,4.3-1.1,4.9-3h3.3c-0.6,3.3-3.4,5.8-8.1,5.8
		c-6,0-9.3-4.4-9.3-10.3c0-5.9,3.4-9.9,9.2-9.9c5.7,0,8.4,4.2,8.5,8.9V306.3z M970.5,303.6h11.1c-0.2-2.4-2.1-4.5-5.3-4.5
		C972.8,299.1,970.9,301.2,970.5,303.6z"/>
</g>
<g>
	<path class="st0" d="M1079.2,287.6v27.6h-3.2v-27.6H1079.2z"/>
	<path class="st0" d="M1097.6,313.2h-0.8c-1.2,1.5-3.2,2.5-6,2.5c-4.4,0-6.9-3-6.9-6.2c0-3.1,2-6.3,7.3-6.3h6.2v-0.8
		c0-2.3-1.3-4-4.7-4c-2.8,0-4.3,1.1-4.4,2.8h-3.2c0.3-3.5,3.3-5.6,7.6-5.6c4.8,0,7.9,2.3,7.9,6.6v13h-3V313.2z M1097.5,307.5v-1.7
		h-5.7c-3.2,0-4.6,1.4-4.6,3.6c0,2.2,1.6,3.5,4.4,3.5C1094.8,312.9,1097.5,310.5,1097.5,307.5z"/>
	<path class="st0" d="M1115.8,296.1v2.8h-4.8v10.5c0,1.9,0.8,2.9,3.4,2.9h1.4v2.9h-1.5c-4.1,0-6.6-1.3-6.6-5.4v-11h-3.3v-2.8h3.3
		v-5.8h3.2v5.8H1115.8z"/>
	<path class="st0" d="M1121.2,291.1v-3.5h3.4v3.5H1121.2z M1124.5,315.2h-3.2v-19.1h3.2V315.2z"/>
	<path class="st0" d="M1140.1,296.1v2.8h-4.8v10.5c0,1.9,0.8,2.9,3.4,2.9h1.4v2.9h-1.5c-4.1,0-6.6-1.3-6.6-5.4v-11h-3.3v-2.8h3.3
		v-5.8h3.2v5.8H1140.1z"/>
	<path class="st0" d="M1148.3,296.1v11.5c0,3.5,1.6,5.3,4.9,5.3c3.4,0,5.7-2.9,5.7-6.4v-10.4h3.2v19.1h-3.1v-2.1h-0.8
		c-1.1,1.5-3.2,2.5-5.8,2.5c-4.7,0-7.3-2.9-7.3-7.5v-12.2H1148.3z"/>
	<path class="st0" d="M1185.5,287.6v27.6h-3.1v-2.1h-0.8c-1.1,1.3-2.9,2.5-6,2.5c-5.3,0-8.4-4.4-8.4-10.1c0-5.8,3.1-10.1,8.4-10.1
		c3,0,4.8,1.2,5.9,2.5h0.8v-10.5H1185.5z M1182.3,305.6c0-3.8-1.7-7.3-6-7.3c-3.8,0-5.9,3-5.9,7.3c0,4.3,2.1,7.3,5.9,7.3
		C1180.6,312.9,1182.3,309.4,1182.3,305.6z"/>
	<path class="st0" d="M1208.3,305.6h-14.6c0.1,4.6,2.2,7.3,6.1,7.3c2.7,0,4.3-1.1,4.9-3h3.3c-0.6,3.3-3.4,5.8-8.1,5.8
		c-6,0-9.3-4.4-9.3-10.3c0-5.9,3.4-9.9,9.2-9.9c5.7,0,8.4,4.2,8.5,8.9V305.6z M1193.9,302.9h11.1c-0.2-2.4-2.1-4.5-5.3-4.5
		C1196.2,298.4,1194.4,300.5,1193.9,302.9z"/>
</g>
<rect x="19.9" y="119.2" class="st1" width="404.8" height="581.4"/>
<rect x="577.8" y="119.2" class="st1" width="874.6" height="460.7"/>
<g>
	<path class="st2" d="M967.2,33.5h-15.7V76h-6V33.5h-15.8v-5.4h37.5V33.5z"/>
	<path class="st2" d="M989.2,72.4h-1.5c-2.1,2.6-5.7,4.4-10.5,4.4c-7.8,0-12.1-5.2-12.1-11c0-5.4,3.5-11.2,12.9-11.2h11v-1.3
		c0-4.1-2.3-7-8.2-7c-5,0-7.6,1.9-7.8,4.9h-5.7c0.5-6.2,5.8-9.8,13.4-9.8c8.5,0,13.9,4.1,13.9,11.7v23h-5.4L989.2,72.4L989.2,72.4z
		 M989,62.3v-3.1h-10.1c-5.6,0-8.1,2.4-8.1,6.4c0,3.8,2.8,6.2,7.8,6.2C984.3,71.9,989,67.6,989,62.3z"/>
	<path class="st2" d="M1037.3,59.1c0,10-5.5,17.7-14.8,17.7c-5.4,0-8.6-2.1-10.5-4.5h-1.5v3.6h-5.5V27.3h5.7v18.6h1.5
		c1.8-2.4,5-4.5,10.3-4.5C1031.8,41.3,1037.3,48.9,1037.3,59.1z M1031.6,59.1c0-7.5-3.6-12.8-10.4-12.8c-7.5,0-10.6,6.2-10.6,12.8
		s3.1,12.8,10.6,12.8C1028,71.9,1031.6,66.6,1031.6,59.1z"/>
	<path class="st2" d="M1051.9,27.3V76h-5.7V27.3H1051.9z"/>
	<path class="st2" d="M1092.1,59h-25.7c0.2,8,3.8,12.9,10.8,12.9c4.8,0,7.6-2,8.6-5.2h5.8c-1.1,5.8-6,10.2-14.3,10.2
		c-10.5,0-16.4-7.7-16.4-18.1s6-17.4,16.3-17.4c10,0,14.9,7.4,15.1,15.7V59H1092.1z M1066.8,54.2h19.5c-0.3-4.3-3.6-8-9.3-8
		C1070.8,46.3,1067.5,50,1066.8,54.2z"/>
</g>
<g>
	<path class="st2" d="M176,62.3c-1.9,8.5-8.4,14.5-19,14.5c-14.2,0-22-10.6-22-24.8s8-24.8,22.2-24.8c9.7,0,16.4,5.2,18.4,13.4h-6.4
		c-1.8-5.1-5.4-7.9-12-7.9c-11.1,0-16.1,9.2-16.1,19.3c0,10.2,4.9,19.3,16,19.3c6.7,0,11-3.4,12.6-9C169.7,62.3,176,62.3,176,62.3z"
		/>
	<path class="st2" d="M190.5,27.3V76h-5.7V27.3H190.5z"/>
	<path class="st2" d="M223,72.4h-1.5c-2.1,2.6-5.7,4.4-10.5,4.4c-7.8,0-12.1-5.2-12.1-11c0-5.4,3.5-11.2,12.9-11.2h11v-1.3
		c0-4.1-2.3-7-8.2-7c-5,0-7.6,1.9-7.8,4.9h-5.7c0.5-6.2,5.8-9.8,13.4-9.8c8.5,0,13.9,4.1,13.9,11.7v23H223V72.4z M222.8,62.3v-3.1
		h-10.1c-5.6,0-8.1,2.4-8.1,6.4c0,3.8,2.8,6.2,7.8,6.2C218.1,71.9,222.8,67.6,222.8,62.3z"/>
	<path class="st2" d="M251.4,55.4l3.8,0.6c5.9,1,9.6,4,9.6,10.2c0,5.6-4.8,10.6-13.9,10.6c-9.6,0-14.3-4.2-15-10.6h5.8
		c0.5,3.8,3.9,5.7,9,5.7s8.4-1.8,8.4-5.5c0-2.9-1.9-4.6-6.2-5.3l-7.6-1.3c-4.8-0.9-8.1-3.4-8.1-8.5c0-5.6,4.2-10,13.3-10
		c8,0,12.6,3.8,13.3,9.6h-5.7c-0.5-3.2-3.7-4.7-7.9-4.7c-4.4,0-7.3,1.6-7.3,4.5c0,2.6,1.7,3.6,5.1,4.2L251.4,55.4z"/>
	<path class="st2" d="M285.8,55.4l3.8,0.6c5.9,1,9.6,4,9.6,10.2c0,5.6-4.8,10.6-13.9,10.6c-9.6,0-14.3-4.2-15-10.6h5.8
		c0.5,3.8,3.9,5.7,9,5.7s8.4-1.8,8.4-5.5c0-2.9-1.9-4.6-6.2-5.3l-7.6-1.3c-4.8-0.9-8.1-3.4-8.1-8.5c0-5.6,4.2-10,13.3-10
		c8,0,12.6,3.8,13.3,9.6h-5.7c-0.5-3.2-3.7-4.7-7.9-4.7c-4.4,0-7.3,1.6-7.3,4.5c0,2.6,1.7,3.6,5.1,4.2L285.8,55.4z"/>
</g>
<g>
	<path class="st0" d="M193.9,212.1c-1.9,8.4-8.3,14.3-18.7,14.3c-14.1,0-21.8-10.5-21.8-24.5s7.9-24.5,21.9-24.5
		c9.6,0,16.2,5.1,18.1,13.2H187c-1.8-5-5.3-7.8-11.8-7.8c-11,0-15.9,9.1-15.9,19.1c0,10.1,4.8,19.1,15.8,19.1
		c6.6,0,10.9-3.4,12.4-8.9L193.9,212.1L193.9,212.1z"/>
	<path class="st0" d="M202.6,183.5v-6.1h6v6.1H202.6z M208.3,225.5h-5.6v-33.3h5.6V225.5z"/>
	<path class="st0" d="M235.5,192.2v4.9h-8.4v18.3c0,3.4,1.5,5.1,6,5.1h2.4v5H233c-7.2,0-11.4-2.2-11.4-9.3v-19.1h-5.8v-4.9h5.8
		v-10.1h5.6v10.1H235.5z"/>
	<path class="st0" d="M248.1,238.8l6.9-16.3l-14.2-30.2h6l10.2,22h1.7l9.3-22h5.9l-20,46.6L248.1,238.8L248.1,238.8z"/>
</g>
<g>
	<path class="st0" d="M991.3,189.9c-1.9,8.4-8.3,14.3-18.7,14.3c-14.1,0-21.8-10.5-21.8-24.5s7.9-24.5,21.9-24.5
		c9.6,0,16.2,5.1,18.1,13.2h-6.3c-1.8-5-5.3-7.8-11.8-7.8c-11,0-15.9,9.1-15.9,19.1c0,10.1,4.8,19.1,15.8,19.1
		c6.6,0,10.9-3.4,12.4-8.9L991.3,189.9L991.3,189.9z"/>
	<path class="st0" d="M1000,161.3v-6.1h6v6.1H1000z M1005.7,203.3h-5.6V170h5.6V203.3z"/>
	<path class="st0" d="M1032.9,169.9v4.9h-8.4v18.3c0,3.4,1.5,5.1,6,5.1h2.4v5h-2.6c-7.2,0-11.4-2.2-11.4-9.3v-19.1h-5.8v-4.9h5.8
		v-10.1h5.6v10.1H1032.9z"/>
	<path class="st0" d="M1045.5,216.5l6.9-16.3l-14.2-30.2h6l10.2,22h1.7l9.3-22h5.9l-20,46.6h-5.8V216.5z"/>
</g>
<g>
	<path class="st0" d="M95.1,455.5v-5.1h4.6v5.1H95.1z"/>
	<path class="st0" d="M118.7,455.5v-5.1h4.6v5.1H118.7z"/>
	<path class="st0" d="M142.4,455.5v-5.1h4.6v5.1H142.4z"/>
</g>
<g>
	<path class="st0" d="M1327.7,307.1V302h4.6v5.1H1327.7z"/>
	<path class="st0" d="M1351.4,307.1V302h4.6v5.1H1351.4z"/>
	<path class="st0" d="M1375,307.1V302h4.6v5.1H1375z"/>
</g>
<line class="st1" x1="577.8" y1="247.9" x2="1452.4" y2="247.9"/>
<line class="st1" x1="580.5" y1="354.5" x2="1455.1" y2="354.5"/>
<line class="st1" x1="767.6" y1="247.9" x2="767.6" y2="579.9"/>
<line class="st1" x1="1021.1" y1="247.9" x2="1021.1" y2="579.9"/>
<line class="st1" x1="1254.1" y1="247.9" x2="1254.1" y2="579.9"/>
<g>
	<path class="st0" d="M102.9,318.3h2.6v7.8h7.8v2.6h-7.8v7.8h-2.6v-7.8h-7.8v-2.6h7.8V318.3z"/>
	<path class="st0" d="M140.5,312v25.5h-5.1l-11.9-21.4h-0.8v21.4h-3.1V312h5.1l11.9,21.4h0.8V312H140.5z"/>
	<path class="st0" d="M161.7,329.7h-11.2l-2.6,7.8h-3.3l8.8-25.5h5.4l8.9,25.5h-3.4L161.7,329.7z M151.4,326.8h9.2l-3.9-11.5h-1.4
		L151.4,326.8z"/>
	<path class="st0" d="M171.6,312h5.4l6.4,12h0.8l6.3-12h5.4v25.5h-3.1v-21.9H192l-6.5,12.1h-3.4l-6.5-12.1h-0.8v21.9h-3.1L171.6,312
		L171.6,312z"/>
	<path class="st0" d="M220.8,334.6v2.9h-18.4V312h17.8v2.9h-14.6v7.9h11.7v2.9h-11.7v8.8h15.2V334.6z"/>
	<path class="st0" d="M102.9,361.2h2.6v7.8h7.8v2.6h-7.8v7.8h-2.6v-7.8h-7.8V369h7.8V361.2z"/>
	<path class="st0" d="M137.2,377.5v3h-17.6V355h3.2v22.5H137.2z"/>
	<path class="st0" d="M163.4,367.7c0,7.3-4.2,13.2-11.9,13.2c-7.8,0-11.9-5.9-11.9-13.2c0-7.3,4.1-13.2,11.9-13.2
		C159.2,354.5,163.4,360.4,163.4,367.7z M160.1,367.7c0-5.3-2.6-10.3-8.7-10.3s-8.7,5-8.7,10.3s2.6,10.3,8.7,10.3
		S160.1,373,160.1,367.7z"/>
	<path class="st0" d="M189.5,354.9v25.5h-5.1L172.5,359h-0.8v21.4h-3.1v-25.5h5.1l11.9,21.4h0.8v-21.4H189.5z"/>
	<path class="st0" d="M217.3,366.9v2.6c0,5.9-3,11.5-10.7,11.5s-11.8-5.8-11.8-13.2c0-7.5,4.2-13.2,11.9-13.2c5.3,0,8.9,2.7,9.9,7.1
		h-3.4c-0.8-2.6-2.8-4.2-6.5-4.2c-6,0-8.7,4.8-8.7,10.3c0,5.4,2.6,10.3,8.6,10.3c5.3,0,7.4-3.6,7.4-7.8v-0.5h-7.9v-2.9L217.3,366.9
		L217.3,366.9z"/>
	<path class="st0" d="M240.1,357.8h-8.4v22.7h-3.2v-22.7H220v-2.9h20v2.9H240.1z"/>
	<path class="st0" d="M247.4,354.9v25.5h-3.2v-25.5H247.4z"/>
	<path class="st0" d="M271.6,357.8h-8.4v22.7H260v-22.7h-8.4v-2.9h20V357.8z"/>
	<path class="st0" d="M295.6,354.9v16.4c0,6-3.5,9.6-10.1,9.6c-6.5,0-10.1-3.5-10.1-9.6v-16.4h3.2v16.4c0,4,2.4,6.7,6.8,6.7
		s6.8-2.7,6.8-6.7v-16.4H295.6z"/>
	<path class="st0" d="M311.6,354.9c7.8,0,11.8,5.1,11.8,12.8c0,7.7-4,12.8-11.8,12.8H302V355L311.6,354.9L311.6,354.9z M311.6,377.6
		c6.2,0,8.6-4.5,8.6-9.8s-2.4-9.8-8.6-9.8h-6.3v19.7h6.3V377.6z"/>
	<path class="st0" d="M346.9,377.6v2.9h-18.4V355h17.8v2.9h-14.6v7.9h11.7v2.9h-11.7v8.8h15.2V377.6z"/>
	<path class="st0" d="M102.9,404.2h2.6v7.8h7.8v2.6h-7.8v7.8h-2.6v-7.8h-7.8V412h7.8V404.2z"/>
	<path class="st0" d="M137.2,420.4v3h-17.6v-25.5h3.2v22.5H137.2z"/>
	<path class="st0" d="M156.5,415.6h-11.2l-2.6,7.8h-3.3l8.8-25.5h5.4l8.9,25.5h-3.4L156.5,415.6z M146.3,412.7h9.2l-3.9-11.5h-1.4
		L146.3,412.7z"/>
	<path class="st0" d="M182.2,400.7h-8.4v22.7h-3.2v-22.7h-8.4v-2.9h20L182.2,400.7L182.2,400.7z"/>
	<path class="st0" d="M189.5,397.9v25.5h-3.2v-25.5H189.5z"/>
	<path class="st0" d="M213.7,400.7h-8.4v22.7h-3.2v-22.7h-8.4v-2.9h20L213.7,400.7L213.7,400.7z"/>
	<path class="st0" d="M237.7,397.9v16.4c0,6-3.5,9.6-10.1,9.6c-6.5,0-10.1-3.5-10.1-9.6v-16.4h3.2v16.4c0,4,2.4,6.7,6.8,6.7
		s6.8-2.7,6.8-6.7v-16.4H237.7z"/>
	<path class="st0" d="M253.7,397.9c7.8,0,11.8,5.1,11.8,12.8c0,7.7-4,12.8-11.8,12.8h-9.6V398L253.7,397.9L253.7,397.9z
		 M253.7,420.5c6.2,0,8.6-4.5,8.6-9.8s-2.4-9.8-8.6-9.8h-6.3v19.7h6.3V420.5z"/>
	<path class="st0" d="M289.1,420.5v2.9h-18.4v-25.5h17.8v2.9h-14.6v7.9h11.7v2.9h-11.7v8.8h15.2V420.5z"/>
</g>
</svg>
